<?xml version="1.0" encoding="utf-8"?>
<!-- Generator: Adobe Illustrator 28.0.0, SVG Export Plug-In . SVG Version: 6.00 Build 0)  -->
<svg version="1.1" id="Laag_1" xmlns="http://www.w3.org/2000/svg" xmlns:xlink="http://www.w3.org/1999/xlink" x="0px" y="0px"
	 viewBox="0 0 1920 1080" style="enable-background:new 0 0 1920 1080;" xml:space="preserve">
<style type="text/css">
	.st0{fill:none;stroke:#000000;stroke-width:15;stroke-miterlimit:10;}
	.st1{fill:none;stroke:#000000;stroke-miterlimit:10;}
	.st2{stroke:#000000;stroke-miterlimit:10;}
	.st3{fill:none;stroke:#000000;stroke-width:9;stroke-miterlimit:10;}
</style>
<path class="st0" d="M523.71,991.69V746.45c0-2.47-1.95-4.42-4.29-4.42h-42.37c-3.9,0-5.72-4.94-2.86-7.67l315.03-291.51
	c1.56-1.56,4.03-1.43,5.72,0l74.86,69.92c2.73,2.6,7.15,0.52,7.15-3.25v-24.69c0-2.47,1.95-4.42,4.29-4.42l62.77,1.69
	c2.34,0,4.16,1.95,4.16,4.42v86.95c0,1.3,0.52,2.47,1.43,3.25l35.74,32.18"/>
<g>
	<path class="st1" d="M907.27,137.13"/>
</g>
<path class="st1" d="M565.72,240.97"/>
<path class="st1" d="M565.72,240.97"/>
<g>
	<path class="st1" d="M1251.93,346.24"/>
</g>
<g>
	<path class="st1" d="M1251.93,346.24"/>
</g>
<g>
	<g>
		<path class="st2" d="M208.58,762.78l6.63-40.55c2.99-18.19,8.58-31.19,16.77-38.99c8.19-7.8,17.67-10.79,28.46-9.1
			c9.36,1.56,16.64,5.98,22.09,13.52c5.46,7.54,8.32,16.51,8.71,27.16l-1.04,1.04c2.08-8.84,5.46-16.12,10.4-22.09
			c4.94-5.98,10.4-10.14,16.9-12.48c6.37-2.47,12.87-3.12,19.49-1.95c8.45,1.43,15.6,5.07,21.44,10.92
			c5.85,5.85,9.88,13.39,12.09,22.61s2.34,19.36,0.65,30.28l-7.41,45.1L208.58,762.78z M363.5,744.19c1.04-6.5,0.13-13-2.73-19.62
			c-2.86-6.63-11.05-11.05-24.69-13.26c-8.58-1.43-16.12-1.04-22.61,1.17c-6.5,2.21-11.57,5.59-15.34,10.01s-5.98,9.49-6.89,15.08
			c-0.65,3.9-1.04,7.67-1.17,11.31l-8.19-1.3c1.17-3.64,2.21-8.06,2.99-13c0.91-5.59,0.13-11.18-2.47-17.03
			c-2.47-5.85-9.88-9.75-21.96-11.7c-8.06-1.3-15.08-0.91-20.79,1.17s-10.14,5.2-13.13,9.1c-2.99,3.9-4.81,8.19-5.59,12.61
			c-0.52,3.25-0.91,6.63-1.04,10.27l-2.34-3.51l146.34,24.04l-5.46,2.6C360.77,757.45,362.33,751.6,363.5,744.19z"/>
		<path class="st2" d="M390.79,641.39c-7.15,5.98-16.25,9.62-27.16,10.79c-10.92,1.17-23.39-0.78-37.3-5.85l-88.9-32.75l9.88-26.9
			l89.03,32.88c9.23,3.38,18.32,5.2,27.16,5.2c8.84,0,16.64-1.82,23.26-5.46c6.76-3.64,11.44-9.1,14.04-16.51
			c3.64-9.75,2.73-18.19-2.73-25.34c-5.46-7.15-13.78-12.87-25.21-17.03c-7.8-2.86-18.98-6.11-33.27-9.62s-34.83-8.19-61.6-13.91
			c-3.38-0.65-5.85-2.21-7.41-4.68c-1.56-2.47-1.69-5.2-0.39-8.19l8.06-21.31l86.82,35.74c12.35,5.07,22.22,12.09,29.76,20.79
			c7.54,8.71,12.35,18.32,14.3,28.72c1.95,10.4,1.17,20.66-2.6,30.8C403.26,627.74,397.94,635.28,390.79,641.39z"/>
		<path class="st2" d="M447.19,512.98c-8.32,4.29-17.94,5.85-28.98,4.55c-10.92-1.3-22.61-5.85-35.09-13.91l-79.41-51.6l15.6-24.04
			l79.67,51.6c8.32,5.33,16.77,9.1,25.34,11.05c8.58,1.95,16.64,1.95,23.91-0.13s13.13-6.37,17.42-13
			c5.72-8.71,6.63-17.16,2.99-25.34s-10.66-15.6-20.79-22.22c-7.02-4.55-17.16-10.14-30.28-16.77
			c-13.26-6.63-32.23-15.73-57.05-27.16c-3.12-1.43-5.2-3.51-6.24-6.24c-1.04-2.73-0.52-5.46,1.43-8.19l12.61-18.97l76.81,53.94
			c10.92,7.67,18.98,16.64,24.43,26.9c5.46,10.27,7.93,20.53,7.67,31.06c-0.39,10.53-3.38,20.4-9.36,29.37
			C462.4,502.33,455.51,508.7,447.19,512.98z"/>
		<path class="st2" d="M409.37,304.78l27.03-25.99c10.66-10.27,21.05-17.16,31.32-20.79c10.27-3.64,19.75-4.29,28.59-2.08
			c8.84,2.21,16.51,6.89,23.26,13.91c7.67,7.93,12.35,16.9,14.04,26.9c1.69,9.88,0.65,19.75-2.99,29.5
			c-3.64,9.75-9.36,18.32-17.16,25.86l-12.74,12.22l-5.72-5.98c2.47-1.82,4.94-3.9,7.54-6.37c10.01-9.62,14.69-19.1,13.91-28.33
			c-0.78-9.23-5.59-18.46-14.43-27.55c-7.93-8.19-15.86-13.78-24.17-16.64c-8.19-2.86-15.86-3.64-22.87-1.95
			c-7.02,1.56-13,4.68-18.07,9.36c-1.56,1.69-3.12,3.38-4.68,4.81v-4.03l106.44,110.86l-20.66,19.88L409.37,304.78z M511.91,348.19
			l14.3-24.82l74.6,15.47l-24.82,23.91L511.91,348.19z"/>
		<path class="st2" d="M571.05,176.25l5.59,0.91c-0.78,0.26-1.56,0.65-2.21,1.04c-3.77,2.21-7.8,7.28-12.22,15.21
			s-7.41,17.94-8.97,30.28c-0.39,2.86-1.56,4.81-3.77,5.98c-2.08,1.17-4.29,1.17-6.5-0.13c-2.21-1.3-3.9-3.64-4.94-7.02l-7.67-25.47
			l103.19-61.34l18.71,18.97c2.47,2.6,3.77,5.07,3.77,7.67c0,2.6-0.91,4.55-2.86,5.72c-1.95,1.3-4.29,1.43-7.02,0.39
			c-11.7-4.42-21.96-6.5-30.93-6.5c-8.97,0-15.34,1.17-19.1,3.38c-0.65,0.39-1.43,0.91-1.95,1.43l1.82-5.33l78.76,132.56
			l-24.69,14.69L571.05,176.25z"/>
		<path class="st2" d="M737.14,93.33l29.37-6.76l78.24,124.9l-3.25,0.78c0.52-40.68-2.6-83.7-9.36-128.92
			c-0.65-4.03-0.13-7.28,1.43-9.75s4.16-4.16,7.67-4.81l24.69-5.33l-21.57,166.22l-17.8,4.16L737.14,93.33z"/>
		<path class="st2" d="M941.19,208.22c-10.14-6.63-18.2-15.86-23.78-27.55c-5.72-11.7-8.58-24.95-8.58-39.64
			c0-15.6,3.12-30.02,9.62-43.15c6.37-13.26,15.21-23.78,26.25-31.58s23.52-11.7,37.04-11.7c12.35,0,23.52,3.25,33.4,9.88
			c10.01,6.63,17.8,15.99,23.39,28.07s8.45,25.73,8.45,41.2c0,15.99-2.99,30.41-9.1,43.15c-6.11,12.74-14.56,22.87-25.34,30.28
			c-10.92,7.41-23.13,11.05-36.65,11.05C963.02,218.23,951.45,214.85,941.19,208.22z M1013.71,198.08c4.55-3.77,7.8-8.97,9.75-15.34
			c1.95-6.37,2.99-13.65,2.99-21.57c0-15.08-3.25-29.76-9.75-43.93c-6.5-14.17-14.95-25.73-25.08-34.44
			c-10.14-8.71-20.53-13.13-31.06-13.26c-6.89,0-12.48,1.95-16.9,5.98c-4.42,4.03-7.67,9.23-9.75,15.6
			c-2.08,6.37-3.12,13.65-2.99,21.57c0,14.69,3.12,29.11,9.36,43.15s14.43,25.73,24.56,34.7c10.14,8.97,20.66,13.39,31.58,13.39
			C1003.44,203.8,1009.29,201.85,1013.71,198.08z"/>
		<path class="st2" d="M1093.5,217.58c-8.32-8.97-13.78-19.75-16.38-32.49c-2.73-12.74-2.21-26.25,1.3-40.55
			c3.77-15.08,10.4-28.33,19.75-39.64c9.36-11.31,20.53-19.36,33.14-24.17c12.61-4.81,25.6-5.59,38.73-2.34
			c11.96,2.99,21.96,8.84,30.02,17.81c8.06,8.84,13.39,19.88,15.99,32.88s1.95,27.03-1.82,41.98c-3.9,15.6-10.27,28.72-19.23,39.77
			c-8.97,10.92-19.62,18.71-31.97,23.13c-12.35,4.55-25.08,5.07-38.21,1.82C1112.22,232.52,1101.69,226.41,1093.5,217.58z
			 M1166.28,225.24c5.33-2.6,9.75-6.76,13.13-12.61c3.38-5.85,6.24-12.48,8.06-20.14c3.64-14.69,4.03-29.63,1.17-44.97
			c-2.86-15.34-8.19-28.46-15.99-39.51c-7.8-10.92-16.77-17.81-26.9-20.4c-6.63-1.69-12.61-1.04-17.81,1.69
			c-5.33,2.73-9.75,7.02-13.26,12.74c-3.51,5.72-6.24,12.48-8.19,20.14c-3.51,14.17-4.03,28.98-1.43,44.19
			c2.6,15.21,7.8,28.46,15.47,39.51c7.67,11.05,16.77,18.07,27.42,20.66C1154.85,228.36,1160.96,227.84,1166.28,225.24z"/>
		<path class="st2" d="M1290.01,121.66l33.14,17.55c13.13,6.89,22.87,14.69,29.63,23.26c6.63,8.58,10.27,17.42,10.92,26.51
			c0.65,9.1-1.3,17.94-5.85,26.51c-5.2,9.75-12.22,17.03-21.05,21.7c-8.84,4.68-18.58,6.89-28.98,6.37
			c-10.4-0.39-20.4-3.12-29.89-8.19l-15.6-8.19l3.9-7.28c2.47,1.82,5.2,3.51,8.45,5.2c12.35,6.5,22.74,7.93,31.19,4.29
			c8.45-3.64,15.73-11.05,21.7-22.35c5.33-10.01,8.06-19.36,8.19-28.07c0.13-8.71-1.56-16.12-5.2-22.35
			c-3.64-6.24-8.58-10.92-14.56-14.3c-2.08-0.91-4.16-1.95-6.11-2.99l3.9-1.3l-71.74,135.94l-25.34-13.39L1290.01,121.66z
			 M1281.04,232.65l28.07,5.72l8.71,75.64l-30.54-16.12L1281.04,232.65z"/>
		<path class="st2" d="M1486.91,251.11l28.46,29.63c12.74,13.39,19.88,25.6,21.18,36.78s-1.95,20.66-9.75,28.2
			c-6.76,6.5-14.82,9.75-24.04,9.62c-9.23-0.13-18.2-3.25-26.9-9.23l-0.26-1.56c5.85,6.89,9.62,14.17,11.44,21.57
			s1.82,14.43-0.13,20.92c-1.95,6.5-5.33,12.22-10.14,16.77c-6.11,5.85-13.39,9.49-21.57,10.53c-8.19,1.04-16.64-0.13-25.34-3.9
			c-8.71-3.77-16.9-9.62-24.56-17.67l-31.71-33.01L1486.91,251.11z M1408.8,386.27c4.55,4.68,10.27,7.93,17.42,9.62
			c7.02,1.69,15.47-2.21,25.47-11.7c6.24-5.98,10.53-12.22,12.61-18.84c2.21-6.5,2.47-12.61,1.17-18.33
			c-1.43-5.72-4.03-10.53-7.93-14.56c-2.73-2.86-5.46-5.46-8.32-7.67l5.98-5.72c2.21,3.12,5.07,6.63,8.58,10.27
			c3.9,4.03,8.97,6.76,15.08,8.32c6.24,1.43,13.65-2.08,22.48-10.53c5.98-5.72,9.75-11.44,11.57-17.29
			c1.69-5.85,1.95-11.18,0.52-15.86c-1.3-4.81-3.64-8.84-6.76-12.09c-2.21-2.34-4.81-4.68-7.54-6.89l4.29,0.26l-106.96,102.67
			l1.17-5.98C1399.83,376.13,1403.6,380.81,1408.8,386.27z"/>
		<path class="st2" d="M1472.61,469.97c-0.26-9.36,2.73-18.71,8.58-27.94s15.34-17.81,27.94-25.34l81.23-48.61l14.69,24.69
			l-81.49,48.74c-8.45,5.07-15.47,11.05-21.05,17.94s-9.1,14.04-10.4,21.57c-1.3,7.54,0,14.56,4.03,21.31
			c5.33,8.97,12.48,13.52,21.44,13.78s18.71-2.73,29.11-8.84c7.15-4.29,16.64-10.92,28.46-19.88c11.7-8.97,28.2-21.96,49.52-39.12
			c2.73-2.21,5.46-3.25,8.32-2.86c2.86,0.39,5.2,1.95,6.63,4.81l11.44,19.62l-82.27,45.1c-11.7,6.37-23.39,9.75-34.83,10.14
			c-11.57,0.39-21.96-1.95-31.32-6.89s-16.77-12.09-22.35-21.31C1475.47,488.16,1472.74,479.32,1472.61,469.97z"/>
		<path class="st2" d="M1537.07,594.86c1.82-9.23,6.5-17.67,14.3-25.47c7.8-7.8,18.71-14.17,32.75-18.84l89.68-30.41l9.23,27.16
			l-89.94,30.41c-9.36,3.12-17.54,7.54-24.43,13c-6.89,5.46-11.83,11.83-14.69,18.84c-2.86,7.02-3.12,14.3-0.65,21.7
			c3.38,9.88,9.36,15.86,18.07,18.07c8.71,2.21,18.85,1.3,30.28-2.6c7.93-2.73,18.58-7.15,31.97-13.39
			c13.39-6.24,32.23-15.6,56.66-27.81c3.12-1.56,5.98-1.95,8.84-1.04c2.73,0.91,4.55,2.99,5.46,6.11l7.15,21.7l-89.94,26.77
			c-12.74,3.77-24.82,4.55-36.26,2.47c-11.31-2.08-21.05-6.5-29.11-13.26s-13.78-15.34-17.29-25.6
			C1536.03,613.32,1535.38,603.96,1537.07,594.86z"/>
		<path class="st2" d="M1723.83,687.79l5.59,37.17c2.21,14.56,1.82,27.16-1.17,37.69c-2.99,10.53-7.93,18.71-14.82,24.56
			c-6.89,5.85-15.21,9.49-24.82,10.92c-10.92,1.69-20.92,0.26-30.02-4.16c-9.1-4.42-16.51-10.92-22.35-19.49
			c-5.85-8.58-9.49-18.19-11.18-28.98l-2.6-17.42l8.19-1.17c0,2.99,0.26,6.37,0.78,9.88c2.08,13.78,7.15,23,15.08,27.68
			c7.93,4.68,18.2,6.11,30.8,4.16c11.18-1.69,20.4-5.07,27.55-10.01c7.15-5.07,12.09-10.79,14.82-17.42
			c2.73-6.63,3.77-13.39,2.86-20.14c-0.52-2.34-0.91-4.55-1.17-6.63l3.25,2.47l-152.06,22.74l-4.29-28.46L1723.83,687.79z
			 M1629.22,746.4l12.09,25.99l-55.75,51.99l-5.07-34.05L1629.22,746.4z"/>
	</g>
</g>
<path class="st0" d="M1465.46,983.45V741.72c0-2.34,1.95-4.29,4.42-4.29h43.8c4.03,0,5.98-4.94,2.99-7.54L1190.33,442.8
	c-1.69-1.43-4.16-1.43-5.85,0l-77.59,68.88c-2.86,2.47-7.28,0.52-7.28-3.25V484c0-2.47-2.08-4.42-4.55-4.29l-64.98,1.56
	c-2.34,0-4.29,1.95-4.29,4.29v85.65c0,1.3-0.52,2.47-1.56,3.25L861,714.3c-3.12,2.6-1.17,7.54,2.86,7.54h43.54
	c2.47,0,4.42,1.95,4.42,4.42l-1.82,131.39"/>
<line class="st3" x1="411.88" y1="1039.2" x2="1558.81" y2="1039.2"/>
</svg>
